<mxfile host="app.diagrams.net" modified="2024-06-20T11:41:00.801Z" agent="Mozilla/5.0 (Windows NT 10.0; Win64; x64) AppleWebKit/537.36 (KHTML, like Gecko) Chrome/126.0.0.0 Safari/537.36" etag="uXJWd-bLxJDGYzXID-pt" version="24.5.5" type="device">
  <diagram name="Page-1" id="znj5JbS_G-2XP48DEmsA">
    <mxGraphModel dx="1050" dy="1622" grid="1" gridSize="10" guides="1" tooltips="1" connect="1" arrows="1" fold="1" page="1" pageScale="1" pageWidth="850" pageHeight="1100" math="0" shadow="0">
      <root>
        <mxCell id="0" />
        <mxCell id="1" parent="0" />
        <mxCell id="N11lJJfhze4NbtGsqYz--23" value="" style="html=1;whiteSpace=wrap;fontSize=12;" parent="1" vertex="1">
          <mxGeometry x="70" y="-110" width="740" height="530" as="geometry" />
        </mxCell>
        <mxCell id="N11lJJfhze4NbtGsqYz--24" value="" style="html=1;whiteSpace=wrap;align=left;fontSize=12;" parent="1" vertex="1">
          <mxGeometry x="80" y="60" width="720" height="330" as="geometry" />
        </mxCell>
        <mxCell id="N11lJJfhze4NbtGsqYz--1" value="&lt;div style=&quot;font-size: 12px;&quot;&gt;&amp;lt;abstract&amp;gt;&lt;/div&gt;cppNum_exception" style="swimlane;fontStyle=1;align=center;verticalAlign=top;childLayout=stackLayout;horizontal=1;startSize=40;horizontalStack=0;resizeParent=1;resizeParentMax=0;resizeLast=0;collapsible=1;marginBottom=0;whiteSpace=wrap;html=1;fontSize=12;" parent="1" vertex="1">
          <mxGeometry x="300" y="90" width="280" height="88" as="geometry" />
        </mxCell>
        <mxCell id="N11lJJfhze4NbtGsqYz--3" value="" style="line;strokeWidth=1;fillColor=none;align=left;verticalAlign=middle;spacingTop=-1;spacingLeft=3;spacingRight=3;rotatable=0;labelPosition=right;points=[];portConstraint=eastwest;strokeColor=inherit;fontSize=12;" parent="N11lJJfhze4NbtGsqYz--1" vertex="1">
          <mxGeometry y="40" width="280" height="8" as="geometry" />
        </mxCell>
        <mxCell id="N11lJJfhze4NbtGsqYz--4" value="+ virtual const char * what() const noexcept = 0;" style="text;strokeColor=none;fillColor=none;align=left;verticalAlign=top;spacingLeft=4;spacingRight=4;overflow=hidden;rotatable=0;points=[[0,0.5],[1,0.5]];portConstraint=eastwest;whiteSpace=wrap;html=1;fontSize=12;" parent="N11lJJfhze4NbtGsqYz--1" vertex="1">
          <mxGeometry y="48" width="280" height="40" as="geometry" />
        </mxCell>
        <mxCell id="N11lJJfhze4NbtGsqYz--5" value="math_error" style="swimlane;fontStyle=1;align=center;verticalAlign=top;childLayout=stackLayout;horizontal=1;startSize=26;horizontalStack=0;resizeParent=1;resizeParentMax=0;resizeLast=0;collapsible=1;marginBottom=0;whiteSpace=wrap;html=1;fontSize=12;" parent="1" vertex="1">
          <mxGeometry x="110" y="250" width="250" height="120" as="geometry" />
        </mxCell>
        <mxCell id="N11lJJfhze4NbtGsqYz--6" value="# const char * what_arg;" style="text;strokeColor=none;fillColor=none;align=left;verticalAlign=top;spacingLeft=4;spacingRight=4;overflow=hidden;rotatable=0;points=[[0,0.5],[1,0.5]];portConstraint=eastwest;whiteSpace=wrap;html=1;fontSize=12;" parent="N11lJJfhze4NbtGsqYz--5" vertex="1">
          <mxGeometry y="26" width="250" height="26" as="geometry" />
        </mxCell>
        <mxCell id="N11lJJfhze4NbtGsqYz--7" value="" style="line;strokeWidth=1;fillColor=none;align=left;verticalAlign=middle;spacingTop=-1;spacingLeft=3;spacingRight=3;rotatable=0;labelPosition=right;points=[];portConstraint=eastwest;strokeColor=inherit;fontSize=12;" parent="N11lJJfhze4NbtGsqYz--5" vertex="1">
          <mxGeometry y="52" width="250" height="8" as="geometry" />
        </mxCell>
        <mxCell id="N11lJJfhze4NbtGsqYz--8" value="+ math_error(const char *)&lt;div style=&quot;font-size: 12px;&quot;&gt;+ math_error(const math_error &amp;amp;)&lt;/div&gt;&lt;div style=&quot;font-size: 12px;&quot;&gt;+ virtual const char * what() const noexcept&lt;/div&gt;" style="text;strokeColor=none;fillColor=none;align=left;verticalAlign=top;spacingLeft=4;spacingRight=4;overflow=hidden;rotatable=0;points=[[0,0.5],[1,0.5]];portConstraint=eastwest;whiteSpace=wrap;html=1;fontSize=12;" parent="N11lJJfhze4NbtGsqYz--5" vertex="1">
          <mxGeometry y="60" width="250" height="60" as="geometry" />
        </mxCell>
        <mxCell id="N11lJJfhze4NbtGsqYz--9" value="logic_error" style="swimlane;fontStyle=1;align=center;verticalAlign=top;childLayout=stackLayout;horizontal=1;startSize=26;horizontalStack=0;resizeParent=1;resizeParentMax=0;resizeLast=0;collapsible=1;marginBottom=0;whiteSpace=wrap;html=1;fontSize=12;" parent="1" vertex="1">
          <mxGeometry x="520" y="250" width="250" height="120" as="geometry" />
        </mxCell>
        <mxCell id="N11lJJfhze4NbtGsqYz--10" value="# const char * what_arg;" style="text;strokeColor=none;fillColor=none;align=left;verticalAlign=top;spacingLeft=4;spacingRight=4;overflow=hidden;rotatable=0;points=[[0,0.5],[1,0.5]];portConstraint=eastwest;whiteSpace=wrap;html=1;fontSize=12;" parent="N11lJJfhze4NbtGsqYz--9" vertex="1">
          <mxGeometry y="26" width="250" height="26" as="geometry" />
        </mxCell>
        <mxCell id="N11lJJfhze4NbtGsqYz--11" value="" style="line;strokeWidth=1;fillColor=none;align=left;verticalAlign=middle;spacingTop=-1;spacingLeft=3;spacingRight=3;rotatable=0;labelPosition=right;points=[];portConstraint=eastwest;strokeColor=inherit;fontSize=12;" parent="N11lJJfhze4NbtGsqYz--9" vertex="1">
          <mxGeometry y="52" width="250" height="8" as="geometry" />
        </mxCell>
        <mxCell id="N11lJJfhze4NbtGsqYz--12" value="+ math_error(const char *)&lt;div style=&quot;font-size: 12px;&quot;&gt;+ math_error(const math_error &amp;amp;)&lt;/div&gt;&lt;div style=&quot;font-size: 12px;&quot;&gt;+ virtual const char * what() const noexcept&lt;/div&gt;" style="text;strokeColor=none;fillColor=none;align=left;verticalAlign=top;spacingLeft=4;spacingRight=4;overflow=hidden;rotatable=0;points=[[0,0.5],[1,0.5]];portConstraint=eastwest;whiteSpace=wrap;html=1;fontSize=12;" parent="N11lJJfhze4NbtGsqYz--9" vertex="1">
          <mxGeometry y="60" width="250" height="60" as="geometry" />
        </mxCell>
        <mxCell id="N11lJJfhze4NbtGsqYz--13" value="Extends" style="endArrow=block;endSize=16;endFill=0;html=1;rounded=0;exitX=0.928;exitY=-0.033;exitDx=0;exitDy=0;exitPerimeter=0;fontSize=12;" parent="1" edge="1">
          <mxGeometry width="160" relative="1" as="geometry">
            <mxPoint x="340" y="249.03999999999996" as="sourcePoint" />
            <mxPoint x="341" y="178" as="targetPoint" />
          </mxGeometry>
        </mxCell>
        <mxCell id="N11lJJfhze4NbtGsqYz--14" value="Extends" style="endArrow=block;endSize=16;endFill=0;html=1;rounded=0;exitX=0.928;exitY=-0.033;exitDx=0;exitDy=0;exitPerimeter=0;fontSize=12;" parent="1" edge="1">
          <mxGeometry width="160" relative="1" as="geometry">
            <mxPoint x="540" y="250" as="sourcePoint" />
            <mxPoint x="541" y="180" as="targetPoint" />
          </mxGeometry>
        </mxCell>
        <mxCell id="N11lJJfhze4NbtGsqYz--16" value="std::exception" style="swimlane;fontStyle=1;align=center;verticalAlign=top;childLayout=stackLayout;horizontal=1;startSize=26;horizontalStack=0;resizeParent=1;resizeParentMax=0;resizeLast=0;collapsible=1;marginBottom=0;whiteSpace=wrap;html=1;fontSize=12;" parent="1" vertex="1">
          <mxGeometry x="320" y="-80" width="240" height="100" as="geometry" />
        </mxCell>
        <mxCell id="N11lJJfhze4NbtGsqYz--17" value="# const char * what;" style="text;strokeColor=none;fillColor=none;align=left;verticalAlign=top;spacingLeft=4;spacingRight=4;overflow=hidden;rotatable=0;points=[[0,0.5],[1,0.5]];portConstraint=eastwest;whiteSpace=wrap;html=1;fontSize=12;" parent="N11lJJfhze4NbtGsqYz--16" vertex="1">
          <mxGeometry y="26" width="240" height="26" as="geometry" />
        </mxCell>
        <mxCell id="N11lJJfhze4NbtGsqYz--18" value="" style="line;strokeWidth=1;fillColor=none;align=left;verticalAlign=middle;spacingTop=-1;spacingLeft=3;spacingRight=3;rotatable=0;labelPosition=right;points=[];portConstraint=eastwest;strokeColor=inherit;fontSize=12;" parent="N11lJJfhze4NbtGsqYz--16" vertex="1">
          <mxGeometry y="52" width="240" height="8" as="geometry" />
        </mxCell>
        <mxCell id="N11lJJfhze4NbtGsqYz--19" value="+ virtual const char * what() const noexcept" style="text;strokeColor=none;fillColor=none;align=left;verticalAlign=top;spacingLeft=4;spacingRight=4;overflow=hidden;rotatable=0;points=[[0,0.5],[1,0.5]];portConstraint=eastwest;whiteSpace=wrap;html=1;fontSize=12;" parent="N11lJJfhze4NbtGsqYz--16" vertex="1">
          <mxGeometry y="60" width="240" height="40" as="geometry" />
        </mxCell>
        <mxCell id="N11lJJfhze4NbtGsqYz--20" value="Extends" style="endArrow=block;endSize=16;endFill=0;html=1;rounded=0;exitX=0.928;exitY=-0.033;exitDx=0;exitDy=0;exitPerimeter=0;fontSize=12;" parent="1" edge="1">
          <mxGeometry width="160" relative="1" as="geometry">
            <mxPoint x="440" y="90" as="sourcePoint" />
            <mxPoint x="441" y="20" as="targetPoint" />
          </mxGeometry>
        </mxCell>
        <mxCell id="N11lJJfhze4NbtGsqYz--25" value="&lt;font style=&quot;font-size: 12px;&quot;&gt;ex&lt;/font&gt;" style="html=1;whiteSpace=wrap;fontSize=12;" parent="1" vertex="1">
          <mxGeometry x="80" y="60" width="70" height="40" as="geometry" />
        </mxCell>
      </root>
    </mxGraphModel>
  </diagram>
</mxfile>
